<?xml version="1.0" encoding="UTF-8"?>
<svg xmlns="http://www.w3.org/2000/svg" version="1.1" viewBox="0 0 841.89 595.28">
  <defs>
    <style>
      .cls-1 {
        fill: #7073b5;
      }

      .cls-2 {
        fill: #20244d;
      }
    </style>
  </defs>
  <!-- Generator: Adobe Illustrator 28.7.10, SVG Export Plug-In . SVG Version: 1.2.0 Build 236)  -->
  <g>
    <g id="Camada_1">
      <g id="Ae">
        <rect class="cls-2" x="182.9" y="59.64" width="475.55" height="475.55" rx="90.04" ry="90.04"/>
        <g>
          <path class="cls-1" d="M309.31,339.93l-16.25,48.74c-.59,1.77-1.48,2.36-3.25,2.36h-29.54c-1.77,0-2.36-.89-2.07-2.95l60.85-173.1c1.18-2.95,2.07-5.91,2.66-15.95,0-1.18.59-2.07,1.77-2.07h41.06c1.48,0,1.77.29,2.07,1.77l68.24,189.64c.29,1.77,0,2.66-1.77,2.66h-33.08c-1.48,0-2.36-.59-2.95-1.77l-17.13-49.33h-70.6ZM370.45,307.74c-6.2-19.5-20.09-60.56-25.99-81.23h-.3c-4.73,19.79-16.54,54.35-25.4,81.23h51.69Z"/>
          <path class="cls-1" d="M481.52,326.35c.89,20.68,14.47,37.22,44.6,37.22,13.29,0,25.4-2.36,36.63-7.09.89-.59,1.77-.3,1.77,1.18v24.52c0,1.77-.59,2.66-1.77,3.25-11.22,5.32-24.22,8.57-44.31,8.57-53.76,0-72.96-37.81-72.96-74.14,0-41.06,24.81-77.39,69.42-77.39s60.56,34.27,60.56,62.33c0,8.27-.29,15.06-1.18,18.31-.29,1.18-.89,1.77-2.36,2.07-4.13.89-15.95,1.18-30.43,1.18h-59.96ZM525.53,300.94c11.23,0,15.07,0,16.25-.29v-2.36c0-8.57-5.91-27.47-28.36-27.47-20.38,0-29.54,15.66-31.9,30.13h44.01Z"/>
        </g>
      </g>
    </g>
  </g>
</svg>