<?xml version="1.0" encoding="UTF-8"?>
<svg xmlns="http://www.w3.org/2000/svg" version="1.1" viewBox="0 0 841.89 595.28">
  <defs>
    <style>
      .cls-1 {
        fill: #2d0e0f;
      }

      .cls-2 {
        fill: #f4991c;
      }
    </style>
  </defs>
  <!-- Generator: Adobe Illustrator 28.7.10, SVG Export Plug-In . SVG Version: 1.2.0 Build 236)  -->
  <g>
    <g id="Camada_1">
      <g id="Ai">
        <rect class="cls-1" x="182.9" y="59.64" width="475.55" height="475.55" rx="90.04" ry="90.04"/>
        <g>
          <path class="cls-2" d="M345.94,339.93l-16.25,48.74c-.59,1.77-1.48,2.36-3.25,2.36h-29.54c-1.77,0-2.36-.89-2.07-2.95l60.85-173.1c1.18-2.95,2.07-5.91,2.66-15.95,0-1.18.59-2.07,1.77-2.07h41.06c1.48,0,1.77.29,2.07,1.77l68.24,189.64c.29,1.77,0,2.66-1.77,2.66h-33.08c-1.48,0-2.36-.59-2.95-1.77l-17.13-49.33h-70.6ZM407.09,307.74c-6.2-19.5-20.09-60.56-25.99-81.23h-.3c-4.73,19.79-16.54,54.35-25.4,81.23h51.69Z"/>
          <path class="cls-2" d="M490.97,205.23c0-12.11,8.57-20.38,20.38-20.38,12.7,0,20.09,8.57,20.09,20.38s-7.98,20.38-20.38,20.38-20.09-8.27-20.09-20.38ZM493.04,247.48c0-1.48.89-2.07,2.36-2.07h31.31c1.77,0,2.36.3,2.36,2.07v141.2c0,1.77-.59,2.36-2.66,2.36h-30.43c-2.07,0-2.95-.89-2.95-2.66v-140.9Z"/>
        </g>
      </g>
    </g>
  </g>
</svg>