<?xml version="1.0" encoding="UTF-8"?>
<svg xmlns="http://www.w3.org/2000/svg" version="1.1" viewBox="0 0 841.89 595.28">
  <defs>
    <style>
      .cls-1 {
        fill: #53a0d8;
      }

      .cls-2 {
        fill: #132035;
      }
    </style>
  </defs>
  <!-- Generator: Adobe Illustrator 28.7.10, SVG Export Plug-In . SVG Version: 1.2.0 Build 236)  -->
  <g>
    <g id="Camada_1">
      <g id="Ps">
        <rect class="cls-2" x="182.9" y="59.64" width="475.55" height="475.55" rx="90.04" ry="90.04"/>
        <g>
          <path class="cls-1" d="M296.76,199.62c0-1.48.59-2.36,2.07-2.36,11.23-.29,33.08-.89,54.65-.89,57.31,0,78.57,31.9,78.57,64.4,0,46.97-36.33,67.35-80.94,67.35h-18.61v60.56c0,1.48-.59,2.36-2.36,2.36h-31.02c-1.48,0-2.36-.59-2.36-2.07v-189.35ZM332.5,296.51c5.02.3,8.86.3,18.61.3,24.81,0,45.79-8.27,45.79-35.15,0-21.56-15.36-34.27-42.54-34.27-10.34,0-18.61.3-21.86.59v68.53Z"/>
          <path class="cls-1" d="M511.21,271.11c-15.66,0-20.97,6.5-20.97,12.7s4.43,10.93,23.34,18.31c33.68,12.41,45.2,25.7,45.2,46.67,0,27.77-21.86,45.2-58.19,45.2-17.43,0-32.79-3.25-41.65-8.27-1.48-.89-2.07-1.48-2.07-3.25v-28.06c0-1.48,1.18-2.07,2.36-1.48,12.7,8.27,28.95,11.82,42.24,11.82,15.36,0,22.75-5.32,22.75-13s-5.61-12.11-23.93-19.5c-32.2-11.82-43.72-25.11-43.72-46.38,0-22.45,18.31-43.42,55.24-43.42,17.13,0,30.13,2.36,37.22,5.91,1.48.89,1.77,2.07,1.77,3.54v25.99c0,1.48-.89,2.36-2.66,1.77-9.16-5.02-23.93-8.57-36.92-8.57Z"/>
        </g>
      </g>
    </g>
  </g>
</svg>